<?xml version="1.0" standalone="no"?>
<!DOCTYPE svg PUBLIC "-//W3C//DTD SVG 20010904//EN"
 "http://www.w3.org/TR/2001/REC-SVG-20010904/DTD/svg10.dtd">
<svg version="1.0" xmlns="http://www.w3.org/2000/svg"
 width="199.000000pt" height="47.000000pt" viewBox="0 0 199.000000 47.000000"
 preserveAspectRatio="xMidYMid meet">
<metadata>
Created by potrace 1.10, written by Peter Selinger 2001-2011
</metadata>
<div>
<style></style>
</div>
<g transform="translate(0.000000,47.000000) scale(0.100000,-0.100000)"
fill="#07d" stroke="none">
<path d="M130 438 c-61 -31 -90 -77 -90 -141 0 -57 26 -104 72 -132 27 -15 27
-17 12 -40 l-16 -24 36 6 c20 3 36 2 36 -2 0 -4 -14 -31 -31 -59 l-32 -51 84
75 c46 42 100 88 121 103 45 33 73 100 64 151 -13 71 -98 135 -176 136 -20 0
-56 -10 -80 -22z m174 -42 c82 -62 60 -179 -42 -223 -18 -7 -30 -18 -27 -23 4
-6 0 -17 -9 -25 -12 -12 -19 -13 -45 -2 l-30 13 22 42 c17 35 19 46 9 62 -7
11 -12 22 -12 25 0 11 28 4 40 -10 7 -8 21 -15 32 -15 20 0 20 0 -1 -35 -11
-19 -16 -35 -12 -35 11 0 60 57 62 71 2 13 5 22 14 42 11 26 -2 33 -25 12 -23
-21 -25 -32 -7 -38 6 -2 -1 -2 -18 1 -16 2 -37 10 -46 18 -8 8 -23 14 -33 14
-9 0 -14 5 -11 10 4 7 12 7 25 0 25 -13 30 -13 30 4 0 7 -14 19 -31 27 -28 11
-33 10 -45 -6 -19 -26 -18 -42 6 -76 17 -23 19 -33 10 -49 -8 -15 -15 -18 -28
-11 -56 30 -78 109 -47 168 41 75 148 94 219 39z"/>
<path d="M196 371 c-12 -14 -14 -21 -6 -26 17 -10 47 22 34 35 -7 7 -16 4 -28
-9z"/>
<path d="M227 352 c-12 -14 -14 -21 -5 -30 8 -8 15 -5 28 11 29 35 7 52 -23
19z"/>
<path d="M252 317 c-22 -23 -29 -47 -14 -47 14 0 63 56 55 63 -11 11 -18 8
-41 -16z"/>
<path d="M1313 329 c-16 -16 -5 -39 17 -39 25 0 35 18 20 35 -15 18 -22 19
-37 4z"/>
<path d="M439 306 c-2 -2 -3 -43 -1 -90 3 -77 5 -86 23 -86 16 0 19 8 19 58
l1 57 27 -55 c22 -45 32 -56 55 -58 l28 -3 -3 88 c-3 84 -4 88 -27 91 -23 4
-24 2 -18 -52 3 -31 4 -56 2 -56 -2 0 -15 25 -29 55 -20 44 -30 55 -49 55 -13
0 -26 -2 -28 -4z m28 -58 c-3 -7 -5 -2 -5 12 0 14 2 19 5 13 2 -7 2 -19 0 -25z"/>
<path d="M1154 297 c-3 -8 -4 -47 -2 -88 3 -68 5 -74 26 -77 19 -3 22 1 22 27
0 28 3 31 29 31 54 0 79 62 41 100 -24 24 -107 29 -116 7z m83 -44 c2 -6 -5
-17 -16 -23 -19 -10 -21 -8 -21 15 0 19 5 26 17 23 9 -2 18 -8 20 -15z m-60
-55 c-3 -7 -5 -2 -5 12 0 14 2 19 5 13 2 -7 2 -19 0 -25z"/>
<path d="M646 259 c-70 -55 2 -156 88 -123 31 12 18 35 -19 32 -19 -1 -40 3
-47 10 -9 9 -3 12 29 12 49 0 70 19 53 50 -10 19 -47 40 -69 40 -5 0 -20 -9
-35 -21z m64 -28 c0 -5 -11 -11 -25 -13 -24 -5 -32 2 -18 15 9 10 43 8 43 -2z"/>
<path d="M782 271 c-8 -5 -8 -22 2 -62 15 -68 22 -79 46 -79 22 0 31 12 40 54
7 32 13 26 24 -26 9 -39 52 -39 67 -1 17 46 22 110 9 118 -18 11 -31 -8 -39
-61 l-7 -49 -8 43 c-8 42 -32 67 -53 54 -5 -4 -15 -25 -20 -47 l-10 -40 -7 47
c-8 46 -22 63 -44 49z"/>
<path d="M1022 264 c-40 -28 -26 -64 32 -78 21 -5 26 -10 18 -18 -9 -9 -18 -8
-36 0 -29 13 -44 -1 -26 -23 15 -19 70 -19 94 -2 29 21 17 60 -21 72 -41 12
-43 29 -3 23 38 -6 49 19 14 32 -35 14 -46 13 -72 -6z"/>
<path d="M1418 269 c-27 -10 -28 -14 -28 -76 0 -60 1 -64 22 -61 18 3 21 10
22 53 1 42 4 50 20 50 16 0 19 -8 20 -50 1 -44 4 -50 24 -53 21 -3 22 0 22 56
0 36 -5 64 -13 70 -20 17 -60 22 -89 11z"/>
<path d="M1590 273 c-46 -16 -56 -92 -15 -119 14 -9 34 -14 46 -11 13 3 19 1
16 -6 -2 -7 -21 -12 -43 -12 -29 0 -38 -4 -36 -15 8 -33 62 -41 100 -14 19 13
22 24 22 90 0 71 -1 75 -26 84 -27 11 -41 11 -64 3z m50 -63 c0 -23 -4 -30
-20 -30 -25 0 -36 25 -20 45 21 25 40 18 40 -15z"/>
<path d="M1736 259 c-52 -41 -23 -129 43 -129 40 0 61 9 61 27 0 12 -7 14 -29
10 -17 -4 -36 0 -47 8 -17 13 -16 14 22 15 50 0 71 19 54 50 -10 19 -47 40
-69 40 -5 0 -20 -9 -35 -21z m64 -28 c0 -5 -11 -11 -25 -13 -24 -5 -32 2 -18
15 9 10 43 8 43 -2z"/>
<path d="M1897 268 c-27 -10 -28 -12 -25 -71 3 -56 5 -62 26 -65 21 -3 22 0
22 52 0 53 1 56 25 56 27 0 32 9 13 28 -14 14 -23 14 -61 0z"/>
<path d="M1312 203 c3 -62 5 -68 26 -71 22 -3 23 -1 20 65 -3 62 -5 68 -26 71
-22 3 -23 1 -20 -65z"/>
</g>
</svg>
