<svg xmlns="http://www.w3.org/2000/svg" viewBox="0 0 48 48"><title>20-app designer</title><g id="_20-app_designer" data-name="20-app designer"><path d="M43,48H5a5.006,5.006,0,0,1-5-5,1,1,0,0,1,1-1H47a1,1,0,0,1,1,1A5.006,5.006,0,0,1,43,48ZM2.171,44A3.006,3.006,0,0,0,5,46H43a3.006,3.006,0,0,0,2.829-2Z"/><rect x="19" y="43" width="10" height="2"/><path d="M46,43H44V14a1,1,0,0,0-1-1H39V11h4a3,3,0,0,1,3,3Z"/><path d="M4,43H2V14a3,3,0,0,1,3-3h7v2H5a1,1,0,0,0-1,1Z"/><rect x="6" y="36" width="2" height="2"/><rect x="10" y="36" width="28" height="2"/><rect x="40" y="36" width="2" height="2"/><path d="M13,37H11V3a3,3,0,0,1,3-3H34a3,3,0,0,1,3,3V9H35V3a1,1,0,0,0-1-1H14a1,1,0,0,0-1,1Z"/><rect x="12" y="6" width="24" height="2"/><rect x="21" y="3" width="6" height="2"/><path d="M26.648,25.176a1,1,0,0,1-.707-.293L23.117,22.06a1,1,0,0,1,0-1.414L42.884.878a3.068,3.068,0,0,1,4.239,0,3,3,0,0,1,0,4.238L27.355,24.883A1,1,0,0,1,26.648,25.176Zm-1.41-3.823,1.41,1.409L45.708,3.7a1,1,0,0,0,0-1.41,1.019,1.019,0,0,0-1.409,0Z"/><path d="M21,28a1,1,0,0,1-.895-1.447l2.824-5.648,1.789.895-1.482,2.964L26.2,23.281,27.1,25.07,21.447,27.9A1,1,0,0,1,21,28Z"/><rect x="38.356" y="6.648" width="2" height="3.994" transform="translate(5.414 30.36) rotate(-45)"/><rect x="35" y="15" width="2" height="22"/><rect x="15" y="26" width="3" height="2"/><rect x="26" y="26" width="7" height="2"/><rect x="15" y="31" width="18" height="2"/><rect x="15" y="10" width="2" height="2"/><rect x="19" y="10" width="2" height="2"/><rect x="15" y="14" width="2" height="2"/></g></svg>